<?xml version="1.0" encoding="utf-8"?>
<!-- Generator: Adobe Illustrator 19.2.0, SVG Export Plug-In . SVG Version: 6.00 Build 0)  -->
<svg version="1.1" id="Layer_1" xmlns="http://www.w3.org/2000/svg" xmlns:xlink="http://www.w3.org/1999/xlink" x="0px" y="0px"
	 viewBox="0 0 236 239" style="enable-background:new 0 0 236 239;" xml:space="preserve">
<style type="text/css">
	.st0{fill:#FFFFFF;}
</style>
<g>
	<path class="st0" d="M152.4,108.9c2.2-0.8,4.1-1.9,5.4-3.4l0,0c1.1-0.7,2.9-3,4.5-5.1l0.1-0.1c1.8-0.8,4.4-1.5,6.3-1.9
		c-0.3,1.6,0.6,2.4,1.7,2.5c4.9,0.5,1.9-7.5-1.8-3.4c-1.7,0.3-3.8,0.8-5.6,1.5c1.3-2.1,2.4-4.1,3-6.5l0,0c1-0.7,2.8-2,2.3-3.5
		c-1.3-4.3-6.4-0.5-3,3.2c-0.6,2.5-1.8,4.5-3.1,6.7c-0.1,0-0.1,0.2-0.2,0.3l-0.5,0.6c-0.9,1.2-2.5,3-3.6,4.1c0-1,0.1-2.1,0.2-3.1
		c0,0,0.5-4.5,0.2-6.1c0.9-0.8,2.6-2.3,2-3.8c-1.6-4.1-6.3,0-3,3.4l0.1,0.1v0.1c0.3,2.1,0.1,4.1-0.1,6.1c-0.1,1.3-0.3,2.6-0.3,4
		c-1.1,1.3-2.7,2.3-4.5,3.1v-0.2c1.5-5.9,1.8-12.3-0.3-17.8c-6.9,5.5-8,21.7-4.3,29.1C149.7,116.2,151.3,112.7,152.4,108.9z"/>
	<path class="st0" d="M190.8,118.6c-1.2-1-3.1,0.2-4.1,0.8l0,0c-2.5-0.4-4.7-0.2-7.1,0.2c1.3-1.4,2.6-3.2,3.6-4.6
		c5.2-1.8-0.9-7.7-2.4-2.9c-0.1,0.9,0,1.9,1.7,2.6c-1.1,1.6-2.7,3.7-4.2,5.1h-0.1c-2.5,0.7-5.3,1.4-6.4,2.2l0,0
		c-1.9,0.6-3.7,1.9-5.3,3.7c-3.9-0.5-7.7-0.4-11,0c5.3,6.3,20.7,11.6,28.4,7.4c-4.2-4.1-10.2-6.3-16.2-7.3h-0.2c1.4-1.4,3-2.5,4.6-3
		c1.2,0.5,2.5,0.9,3.8,1.3c1.9,0.6,3.9,1.2,5.7,2.3c0,0,0.1,0,0.1,0.1l0.1,0.1c1.8,4.3,7.5,1.7,4.3-1.4c-1.1-1.1-3.2-0.1-4.2,0.4
		c-1.4-0.9-5.7-2.2-5.7-2.2c-1-0.3-2-0.6-3-1c1.4-0.6,3.2-1.1,4.6-1.5l0.7-0.2c0.1,0,0.8-0.2,0.9-0.3c2.5-0.4,4.9-0.6,7.4-0.2
		C188.7,124.7,194.2,121.5,190.8,118.6z"/>
	<path class="st0" d="M122.8,149.3c-6.4-5.6-17.4-11.1-27.1-9.2C99.8,147.7,115.1,151.6,122.8,149.3z"/>
	<path class="st0" d="M134.2,177.5c1.6-8.9-3.5-18.8-8.6-24.5C123.6,160.1,127.3,174,134.2,177.5z"/>
	<path class="st0" d="M120.5,158c-3,4.4-3,11-1.9,15.4c3.1-3.2,5-11.8,2.5-15.8L120.5,158z"/>
	<path class="st0" d="M138.2,128.4c4.8-12,7.3-30.8-0.3-43.8C129,94.2,131,118.4,138.2,128.4z"/>
	<path class="st0" d="M142.7,132.8c6,11.6,29.5,18,41.3,14.6C174.4,138.8,157.5,130.1,142.7,132.8z"/>
	<path class="st0" d="M112.2,167.1h-4.3c-5.3,0-10-0.9-13.8-2.5c-3.8-1.7-7-3.9-9.5-6.7s-4.4-6-5.7-9.6c-1.3-3.6-1.9-7.3-1.9-11.1
		c0-3.9,0.3-7.3,1-10.1c0.7-2.7,1.8-5.5,3.3-8.1l2.2-3.8c0.1-0.1,0.1-0.3-0.1-0.5c-0.1-0.1-0.3-0.1-0.5-0.1l-3.8,2.2
		c-4.2,2.5-7.9,6.4-10.8,11.4c-2.9,5.1-4.4,10.5-4.4,16.2c0,3.7,0.7,7.4,2,10.9s3.2,6.8,5.6,9.6c2.4,2.9,5.3,5.2,8.7,6.9
		c3.4,1.7,7.3,2.6,11.6,2.6c2.7,0,5.4-0.4,8.1-1.1c2.7-0.7,5.6-1.9,8.6-3.6l3.7-2.1c0.1-0.1,0.2-0.3,0.2-0.4
		C112.5,167.3,112.4,167.1,112.2,167.1z"/>
	<path class="st0" d="M118.3,53.1c3,1.4,5.2,3.5,6.7,6.2c1.5,2.8,2.3,5.9,2.3,9.3c0,6.7-2.1,13-6.3,18.6l-2.9,3.8
		c-0.1,0.1-0.1,0.3,0,0.5c0.1,0.1,0.2,0.1,0.3,0.1c0.1,0,0.1,0,0.2,0l4.2-2.1c4.2-2.1,7.9-5.1,11-8.9c3.2-3.9,4.8-8.3,4.8-13.1
		c0-4.3-1.6-8.2-4.7-11.5c-3.4-3.7-8.5-5.9-14.7-6.2c0,0-0.6,0-1.7,0c-1,0-2.4,0-4.1,0.1c-0.2,0-0.3,0.1-0.3,0.3s0,0.3,0.2,0.4
		L118.3,53.1z"/>
	<path class="st0" d="M178.8,161.5l-4.8,1.4c-0.8,0.2-1.7,0.4-2.6,0.5s-1.7,0.2-2.3,0.2c-1.5,0-2.9-0.2-4.3-0.7
		c-1.4-0.4-2.9-1.3-4.6-2.5c-1.8-1.3-3.8-3.1-6.2-5.4c-2.4-2.4-5.3-5.5-8.7-9.4c-1-1.1-2.6-3-4.7-5.6c-1.1-1.4-2.4-2.9-3.7-4.6
		c0.3-0.3,0.5-0.6,0.8-0.9c0.5-0.5,1-1.1,1.4-1.6c1.3-1.5,2.6-2.9,4-4.3c3.2-3.2,7.2-5.6,11-8l0.4-0.2c2.9-0.5,9.1-1.9,15.2-5.4
		c8.4-4.8,13.6-11.6,13.6-11.6s-8.5,0.9-17,5.7c-6.2,3.5-10.6,8.1-12.5,10.3c-0.1,0.1-0.3,0.2-0.4,0.3c-3.9,2.3-7.9,4.7-11.3,8
		c-1.5,1.4-2.9,2.9-4.2,4.4c-0.5,0.5-0.9,1-1.3,1.5c-0.2,0.2-0.4,0.5-0.7,0.7c-0.8-1-1.6-2-2.5-3.1c-2.8-3.5-5.6-7.1-8.5-10.9
		c-3-3.9-6-7.8-8.9-11.6c-2.9-3.8-5.6-7.5-8.1-11s-4.6-6.5-6.2-9.1c-2.7-4.1-4.9-8-6.6-11.8c-1.6-3.6-2.4-7.2-2.4-10.7
		c0-2.2,0.5-4.3,1.5-6.4c1-2.1,2.7-4.1,5-6.1l3.1-2.7c0.1-0.1,0.2-0.3,0.1-0.4c0-0.1-0.2-0.2-0.3-0.3c-5-0.3-10.6,3.4-10.9,3.5
		c-2.1,1.4-4,3.2-5.6,5.2c-1.7,2.1-3,4.5-4,7.1c-1,2.7-1.5,5.6-1.5,8.7c0,2.8,0.8,6.2,2.3,10c1.5,3.7,3.5,7.5,5.9,11.3
		c2.3,3.3,5.3,7.6,9.4,13.3c3.9,5.5,8.4,11.5,13.1,17.8s9.7,12.6,14.7,18.9c0.4,0.5,0.8,0.9,1.2,1.4c-0.2,0.2-0.4,0.4-0.6,0.7
		c-2.8,3.1-6.2,5.6-9.7,8c-1.4-0.7-3.6-0.6-3.6-0.6c-5.3,0.1-10.5,2.9-13.5,5.5l-1.3,1.1l1.6,0.5c1.1,0.4,2.5,0.5,4,0.5
		c4.7-0.1,10.6-2.1,12.9-5.7l0.5-0.7c3.5-2.3,6.9-4.8,9.8-7.9c0.2-0.2,0.3-0.4,0.5-0.6c4.4,5.3,8.5,10.2,12.1,14.3
		c3.4,3.8,6.5,6.6,9.4,8.3c3,1.8,6.4,2.8,10.2,2.8c4.1,0,7.4-0.9,9.9-2.7c2.2-1.7,4.4-3.4,6.4-5.2l3.8-3.3c0.1-0.1,0.2-0.3,0.1-0.5
		C179.1,161.5,179,161.4,178.8,161.5z"/>
	<path class="st0" d="M118,21.1c-53.8,0-97.6,43.8-97.6,97.6s43.8,97.6,97.6,97.6s97.6-43.8,97.6-97.6
		C215.6,64.8,171.8,21.1,118,21.1z M118,209.2c-49.9,0-90.6-40.6-90.6-90.6C27.4,68.7,68,28,118,28c49.9,0,90.6,40.6,90.6,90.6
		S168,209.2,118,209.2z"/>
</g>
</svg>
